<svg xmlns="http://www.w3.org/2000/svg" width="1526" height="571" fill="none"><path stroke="#000" stroke-linecap="round" stroke-opacity=".05" stroke-width="2" d="M.45 0C-.253 2.673-.653 8.161 3.379 8.731c4.03.57 6.126-4.678 6.67-7.374-.224 2.741.337 8.365 4.368 8.935 4.031.57 5.166-4.814 5.23-7.577M54.248 0c-.703 2.673-1.102 8.161 2.929 8.731 4.031.57 6.126-4.678 6.67-7.374-.224 2.741.337 8.365 4.368 8.935 4.031.57 5.166-4.814 5.23-7.577M108.047 0c-.704 2.673-1.103 8.161 2.928 8.731 4.032.57 6.126-4.678 6.67-7.374-.223 2.741.337 8.365 4.369 8.935 4.031.57 5.166-4.814 5.229-7.577M161.845 0c-.703 2.673-1.103 8.161 2.929 8.731 4.031.57 6.126-4.678 6.669-7.374-.223 2.741.338 8.365 4.369 8.935 4.031.57 5.166-4.814 5.23-7.577M215.643 0c-.703 2.673-1.102 8.161 2.929 8.731 4.031.57 6.126-4.678 6.67-7.374-.224 2.741.337 8.365 4.368 8.935 4.031.57 5.166-4.814 5.23-7.577M269.442 0c-.704 2.673-1.103 8.161 2.928 8.731 4.032.57 6.126-4.678 6.67-7.374-.223 2.741.337 8.365 4.368 8.935 4.032.57 5.167-4.814 5.23-7.577M323.24 0c-.703 2.673-1.103 8.161 2.929 8.731 4.031.57 6.126-4.678 6.669-7.374-.223 2.741.338 8.365 4.369 8.935 4.031.57 5.166-4.814 5.23-7.577M377.038 0c-.703 2.673-1.102 8.161 2.929 8.731 4.031.57 6.126-4.678 6.67-7.374-.224 2.741.337 8.365 4.368 8.935 4.031.57 5.166-4.814 5.23-7.577M430.837 0c-.704 2.673-1.103 8.161 2.928 8.731 4.032.57 6.126-4.678 6.67-7.374-.224 2.741.337 8.365 4.368 8.935 4.032.57 5.167-4.814 5.23-7.577M484.635 0c-.703 2.673-1.103 8.161 2.929 8.731 4.031.57 6.126-4.678 6.669-7.374-.223 2.741.338 8.365 4.369 8.935 4.031.57 5.166-4.814 5.23-7.577M538.433 0c-.703 2.673-1.102 8.161 2.929 8.731 4.031.57 6.126-4.678 6.67-7.374-.224 2.741.337 8.365 4.368 8.935 4.031.57 5.166-4.814 5.23-7.577M592.232 0c-.704 2.673-1.103 8.161 2.928 8.731 4.032.57 6.126-4.678 6.67-7.374-.224 2.741.337 8.365 4.368 8.935 4.032.57 5.167-4.814 5.23-7.577M646.03 0c-.703 2.673-1.103 8.161 2.929 8.731 4.031.57 6.126-4.678 6.669-7.374-.223 2.741.338 8.365 4.369 8.935 4.031.57 5.166-4.814 5.23-7.577M699.828 0c-.703 2.673-1.102 8.161 2.929 8.731 4.031.57 6.126-4.678 6.67-7.374-.224 2.741.337 8.365 4.368 8.935 4.031.57 5.166-4.814 5.23-7.577M753.627 0c-.704 2.673-1.103 8.161 2.928 8.731 4.032.57 6.126-4.678 6.67-7.374-.224 2.741.337 8.365 4.369 8.935 4.031.57 5.166-4.814 5.229-7.577M807.425 0c-.703 2.673-1.103 8.161 2.929 8.731 4.031.57 6.126-4.678 6.669-7.374-.223 2.741.338 8.365 4.369 8.935 4.031.57 5.166-4.814 5.23-7.577M861.223 0c-.703 2.673-1.102 8.161 2.929 8.731 4.031.57 6.126-4.678 6.67-7.374-.224 2.741.337 8.365 4.368 8.935 4.031.57 5.166-4.814 5.23-7.577M915.022 0c-.704 2.673-1.103 8.161 2.928 8.731 4.032.57 6.126-4.678 6.67-7.374-.224 2.741.337 8.365 4.369 8.935 4.031.57 5.166-4.814 5.229-7.577M968.82 0c-.703 2.673-1.103 8.161 2.929 8.731 4.031.57 6.126-4.678 6.669-7.374-.223 2.741.338 8.365 4.369 8.935 4.031.57 5.166-4.814 5.23-7.577M1022.62 0c-.71 2.673-1.1 8.161 2.93 8.731 4.03.57 6.12-4.678 6.67-7.374-.23 2.741.33 8.365 4.37 8.935 4.03.57 5.16-4.814 5.23-7.577M1076.42 0c-.71 2.673-1.11 8.161 2.93 8.731 4.03.57 6.12-4.678 6.66-7.374-.22 2.741.34 8.365 4.37 8.935 4.03.57 5.17-4.814 5.23-7.577M1130.21 0c-.7 2.673-1.1 8.161 2.93 8.731 4.03.57 6.13-4.678 6.67-7.374-.22 2.741.34 8.365 4.37 8.935 4.03.57 5.17-4.814 5.23-7.577M1184.01 0c-.7 2.673-1.1 8.161 2.93 8.731 4.03.57 6.13-4.678 6.67-7.374-.22 2.741.34 8.365 4.37 8.935 4.03.57 5.17-4.814 5.23-7.577M1237.81 0c-.7 2.673-1.1 8.161 2.93 8.731 4.03.57 6.13-4.678 6.67-7.374-.22 2.741.34 8.365 4.37 8.935 4.03.57 5.16-4.814 5.23-7.577M1291.61 0c-.7 2.673-1.1 8.161 2.93 8.731 4.03.57 6.12-4.678 6.67-7.374-.23 2.741.34 8.365 4.37 8.935 4.03.57 5.16-4.814 5.23-7.577M1345.41 0c-.71 2.673-1.1 8.161 2.93 8.731 4.03.57 6.12-4.678 6.67-7.374-.23 2.741.33 8.365 4.37 8.935 4.03.57 5.16-4.814 5.23-7.577M1399.21 0c-.71 2.673-1.11 8.161 2.93 8.731 4.03.57 6.12-4.678 6.67-7.374-.23 2.741.33 8.365 4.36 8.935 4.03.57 5.17-4.814 5.23-7.577M1453.01 0c-.71 2.673-1.11 8.161 2.92 8.731 4.03.57 6.13-4.678 6.67-7.374-.22 2.741.34 8.365 4.37 8.935 4.03.57 5.17-4.814 5.23-7.577M1506.8 0c-.7 2.673-1.1 8.161 2.93 8.731 4.03.57 6.13-4.678 6.67-7.374-.22 2.741.34 8.365 4.37 8.935 4.03.57 5.17-4.814 5.23-7.577M.45 40.047c-.703 2.674-1.103 8.162 2.929 8.732 4.03.57 6.126-4.679 6.67-7.374-.224 2.74.337 8.365 4.368 8.935 4.031.57 5.166-4.814 5.23-7.578m34.601-2.715c-.703 2.674-1.102 8.162 2.929 8.732 4.031.57 6.126-4.679 6.67-7.374-.224 2.74.337 8.365 4.368 8.935 4.031.57 5.166-4.814 5.23-7.578m34.602-2.715c-.704 2.674-1.103 8.162 2.928 8.732 4.032.57 6.126-4.679 6.67-7.374-.223 2.74.337 8.365 4.369 8.935 4.031.57 5.166-4.814 5.229-7.578m34.602-2.715c-.703 2.674-1.103 8.162 2.929 8.732 4.031.57 6.126-4.679 6.669-7.374-.223 2.74.338 8.365 4.369 8.935 4.031.57 5.166-4.814 5.23-7.578m34.601-2.715c-.703 2.674-1.102 8.162 2.929 8.732 4.031.57 6.126-4.679 6.67-7.374-.224 2.74.337 8.365 4.368 8.935 4.031.57 5.166-4.814 5.23-7.578m34.602-2.715c-.704 2.674-1.103 8.162 2.928 8.732 4.032.57 6.126-4.679 6.67-7.374-.223 2.74.337 8.365 4.368 8.935 4.032.57 5.167-4.814 5.23-7.578m34.602-2.715c-.703 2.674-1.103 8.162 2.929 8.732 4.031.57 6.126-4.679 6.669-7.374-.223 2.74.338 8.365 4.369 8.935 4.031.57 5.166-4.814 5.23-7.578m34.601-2.715c-.703 2.674-1.102 8.162 2.929 8.732 4.031.57 6.126-4.679 6.67-7.374-.224 2.74.337 8.365 4.368 8.935 4.031.57 5.166-4.814 5.23-7.578m34.602-2.715c-.704 2.674-1.103 8.162 2.928 8.732 4.032.57 6.126-4.679 6.67-7.374-.224 2.74.337 8.365 4.368 8.935 4.032.57 5.167-4.814 5.23-7.578m34.602-2.715c-.703 2.674-1.103 8.162 2.929 8.732 4.031.57 6.126-4.679 6.669-7.374-.223 2.74.338 8.365 4.369 8.935 4.031.57 5.166-4.814 5.23-7.578m34.601-2.715c-.703 2.674-1.102 8.162 2.929 8.732 4.031.57 6.126-4.679 6.67-7.374-.224 2.74.337 8.365 4.368 8.935 4.031.57 5.166-4.814 5.23-7.578m34.602-2.715c-.704 2.674-1.103 8.162 2.928 8.732 4.032.57 6.126-4.679 6.67-7.374-.224 2.74.337 8.365 4.368 8.935 4.032.57 5.167-4.814 5.23-7.578m34.602-2.715c-.703 2.674-1.103 8.162 2.929 8.732 4.031.57 6.126-4.679 6.669-7.374-.223 2.74.338 8.365 4.369 8.935 4.031.57 5.166-4.814 5.23-7.578m34.601-2.715c-.703 2.674-1.102 8.162 2.929 8.732 4.031.57 6.126-4.679 6.67-7.374-.224 2.74.337 8.365 4.368 8.935 4.031.57 5.166-4.814 5.23-7.578m34.602-2.715c-.704 2.674-1.103 8.162 2.928 8.732 4.032.57 6.126-4.679 6.67-7.374-.224 2.74.337 8.365 4.369 8.935 4.031.57 5.166-4.814 5.229-7.578m34.602-2.715c-.703 2.674-1.103 8.162 2.929 8.732 4.031.57 6.126-4.679 6.669-7.374-.223 2.74.338 8.365 4.369 8.935 4.031.57 5.166-4.814 5.23-7.578m34.601-2.715c-.703 2.674-1.102 8.162 2.929 8.732 4.031.57 6.126-4.679 6.67-7.374-.224 2.74.337 8.365 4.368 8.935 4.031.57 5.166-4.814 5.23-7.578m34.602-2.715c-.704 2.674-1.103 8.162 2.928 8.732 4.032.57 6.126-4.679 6.67-7.374-.224 2.74.337 8.365 4.369 8.935 4.031.57 5.166-4.814 5.229-7.578m34.602-2.715c-.703 2.674-1.103 8.162 2.929 8.732 4.031.57 6.126-4.679 6.669-7.374-.223 2.74.338 8.365 4.369 8.935 4.031.57 5.166-4.814 5.23-7.578m34.603-2.715c-.71 2.674-1.1 8.162 2.93 8.732 4.03.57 6.12-4.679 6.67-7.374-.23 2.74.33 8.365 4.37 8.935 4.03.57 5.16-4.814 5.23-7.578m34.6-2.715c-.71 2.674-1.11 8.162 2.93 8.732 4.03.57 6.12-4.679 6.66-7.374-.22 2.74.34 8.365 4.37 8.935 4.03.57 5.17-4.814 5.23-7.578m34.6-2.715c-.7 2.674-1.1 8.162 2.93 8.732 4.03.57 6.13-4.679 6.67-7.374-.22 2.74.34 8.365 4.37 8.935 4.03.57 5.17-4.814 5.23-7.578m34.6-2.715c-.7 2.674-1.1 8.162 2.93 8.732 4.03.57 6.13-4.679 6.67-7.374-.22 2.74.34 8.365 4.37 8.935 4.03.57 5.17-4.814 5.23-7.578m34.6-2.715c-.7 2.674-1.1 8.162 2.93 8.732 4.03.57 6.13-4.679 6.67-7.374-.22 2.74.34 8.365 4.37 8.935 4.03.57 5.16-4.814 5.23-7.578m34.6-2.715c-.7 2.674-1.1 8.162 2.93 8.732 4.03.57 6.12-4.679 6.67-7.374-.23 2.74.34 8.365 4.37 8.935 4.03.57 5.16-4.814 5.23-7.578m34.6-2.715c-.71 2.674-1.1 8.162 2.93 8.732 4.03.57 6.12-4.679 6.67-7.374-.23 2.74.33 8.365 4.37 8.935 4.03.57 5.16-4.814 5.23-7.578m34.6-2.715c-.71 2.674-1.11 8.162 2.93 8.732 4.03.57 6.12-4.679 6.67-7.374-.23 2.74.33 8.365 4.36 8.935 4.03.57 5.17-4.814 5.23-7.578m34.61-2.715c-.71 2.674-1.11 8.162 2.92 8.732 4.03.57 6.13-4.679 6.67-7.374-.22 2.74.34 8.365 4.37 8.935 4.03.57 5.17-4.814 5.23-7.578m34.6-2.715c-.7 2.674-1.1 8.162 2.93 8.732 4.03.57 6.13-4.679 6.67-7.374-.22 2.74.34 8.365 4.37 8.935 4.03.57 5.17-4.814 5.23-7.578M.45 80.095c-.703 2.673-1.103 8.161 2.929 8.731 4.03.57 6.126-4.678 6.67-7.373-.224 2.74.337 8.364 4.368 8.934 4.031.57 5.166-4.814 5.23-7.577m34.601-2.715c-.703 2.673-1.102 8.161 2.929 8.731 4.031.57 6.126-4.678 6.67-7.373-.224 2.74.337 8.364 4.368 8.934 4.031.57 5.166-4.814 5.23-7.577m34.602-2.715c-.704 2.673-1.103 8.161 2.928 8.731 4.032.57 6.126-4.678 6.67-7.373-.223 2.74.337 8.364 4.369 8.934 4.031.57 5.166-4.814 5.229-7.577m34.602-2.715c-.703 2.673-1.103 8.161 2.929 8.731 4.031.57 6.126-4.678 6.669-7.373-.223 2.74.338 8.364 4.369 8.934 4.031.57 5.166-4.814 5.23-7.577m34.601-2.715c-.703 2.673-1.102 8.161 2.929 8.731 4.031.57 6.126-4.678 6.67-7.373-.224 2.74.337 8.364 4.368 8.934 4.031.57 5.166-4.814 5.23-7.577m34.602-2.715c-.704 2.673-1.103 8.161 2.928 8.731 4.032.57 6.126-4.678 6.67-7.373-.223 2.74.337 8.364 4.368 8.934 4.032.57 5.167-4.814 5.23-7.577m34.602-2.715c-.703 2.673-1.103 8.161 2.929 8.731 4.031.57 6.126-4.678 6.669-7.373-.223 2.74.338 8.364 4.369 8.934 4.031.57 5.166-4.814 5.23-7.577m34.601-2.715c-.703 2.673-1.102 8.161 2.929 8.731 4.031.57 6.126-4.678 6.67-7.373-.224 2.74.337 8.364 4.368 8.934 4.031.57 5.166-4.814 5.23-7.577m34.602-2.715c-.704 2.673-1.103 8.161 2.928 8.731 4.032.57 6.126-4.678 6.67-7.373-.224 2.74.337 8.364 4.368 8.934 4.032.57 5.167-4.814 5.23-7.577m34.602-2.715c-.703 2.673-1.103 8.161 2.929 8.731 4.031.57 6.126-4.678 6.669-7.373-.223 2.74.338 8.364 4.369 8.934 4.031.57 5.166-4.814 5.23-7.577m34.601-2.715c-.703 2.673-1.102 8.161 2.929 8.731 4.031.57 6.126-4.678 6.67-7.373-.224 2.74.337 8.364 4.368 8.934 4.031.57 5.166-4.814 5.23-7.577m34.602-2.715c-.704 2.673-1.103 8.161 2.928 8.731 4.032.57 6.126-4.678 6.67-7.373-.224 2.74.337 8.364 4.368 8.934 4.032.57 5.167-4.814 5.23-7.577m34.602-2.715c-.703 2.673-1.103 8.161 2.929 8.731 4.031.57 6.126-4.678 6.669-7.373-.223 2.74.338 8.364 4.369 8.934 4.031.57 5.166-4.814 5.23-7.577m34.601-2.715c-.703 2.673-1.102 8.161 2.929 8.731 4.031.57 6.126-4.678 6.67-7.373-.224 2.74.337 8.364 4.368 8.934 4.031.57 5.166-4.814 5.23-7.577m34.602-2.715c-.704 2.673-1.103 8.161 2.928 8.731 4.032.57 6.126-4.678 6.67-7.373-.224 2.74.337 8.364 4.369 8.934 4.031.57 5.166-4.814 5.229-7.577m34.602-2.715c-.703 2.673-1.103 8.161 2.929 8.731 4.031.57 6.126-4.678 6.669-7.373-.223 2.74.338 8.364 4.369 8.934 4.031.57 5.166-4.814 5.23-7.577m34.601-2.715c-.703 2.673-1.102 8.161 2.929 8.731 4.031.57 6.126-4.678 6.67-7.373-.224 2.74.337 8.364 4.368 8.934 4.031.57 5.166-4.814 5.23-7.577m34.602-2.715c-.704 2.673-1.103 8.161 2.928 8.731 4.032.57 6.126-4.678 6.67-7.373-.224 2.74.337 8.364 4.369 8.934 4.031.57 5.166-4.814 5.229-7.577m34.602-2.715c-.703 2.673-1.103 8.161 2.929 8.731 4.031.57 6.126-4.678 6.669-7.373-.223 2.74.338 8.364 4.369 8.934 4.031.57 5.166-4.814 5.23-7.577m34.603-2.715c-.71 2.673-1.1 8.161 2.93 8.731 4.03.57 6.12-4.678 6.67-7.373-.23 2.74.33 8.364 4.37 8.934 4.03.57 5.16-4.814 5.23-7.577m34.6-2.715c-.71 2.673-1.11 8.161 2.93 8.731 4.03.57 6.12-4.678 6.66-7.373-.22 2.74.34 8.364 4.37 8.934 4.03.57 5.17-4.814 5.23-7.577m34.6-2.715c-.7 2.673-1.1 8.161 2.93 8.731 4.03.57 6.13-4.678 6.67-7.373-.22 2.74.34 8.364 4.37 8.934 4.03.57 5.17-4.814 5.23-7.577m34.6-2.715c-.7 2.673-1.1 8.161 2.93 8.731 4.03.57 6.13-4.678 6.67-7.373-.22 2.74.34 8.364 4.37 8.934 4.03.57 5.17-4.814 5.23-7.577m34.6-2.715c-.7 2.673-1.1 8.161 2.93 8.731 4.03.57 6.13-4.678 6.67-7.373-.22 2.74.34 8.364 4.37 8.934 4.03.57 5.16-4.814 5.23-7.577m34.6-2.715c-.7 2.673-1.1 8.161 2.93 8.731 4.03.57 6.12-4.678 6.67-7.373-.23 2.74.34 8.364 4.37 8.934 4.03.57 5.16-4.814 5.23-7.577m34.6-2.715c-.71 2.673-1.1 8.161 2.93 8.731 4.03.57 6.12-4.678 6.67-7.373-.23 2.74.33 8.364 4.37 8.934 4.03.57 5.16-4.814 5.23-7.577m34.6-2.715c-.71 2.673-1.11 8.161 2.93 8.731 4.03.57 6.12-4.678 6.67-7.373-.23 2.74.33 8.364 4.36 8.934 4.03.57 5.17-4.814 5.23-7.577m34.61-2.715c-.71 2.673-1.11 8.161 2.92 8.731 4.03.57 6.13-4.678 6.67-7.373-.22 2.74.34 8.364 4.37 8.934 4.03.57 5.17-4.814 5.23-7.577m34.6-2.715c-.7 2.673-1.1 8.161 2.93 8.731 4.03.57 6.13-4.678 6.67-7.373-.22 2.74.34 8.364 4.37 8.934 4.03.57 5.17-4.814 5.23-7.577M.45 120.143c-.703 2.673-1.103 8.161 2.929 8.731 4.03.57 6.126-4.678 6.67-7.374-.224 2.741.337 8.365 4.368 8.935 4.031.57 5.166-4.814 5.23-7.578m34.601-2.714c-.703 2.673-1.102 8.161 2.929 8.731 4.031.57 6.126-4.678 6.67-7.374-.224 2.741.337 8.365 4.368 8.935 4.031.57 5.166-4.814 5.23-7.578m34.602-2.714c-.704 2.673-1.103 8.161 2.928 8.731 4.032.57 6.126-4.678 6.67-7.374-.223 2.741.337 8.365 4.369 8.935 4.031.57 5.166-4.814 5.229-7.578m34.602-2.714c-.703 2.673-1.103 8.161 2.929 8.731 4.031.57 6.126-4.678 6.669-7.374-.223 2.741.338 8.365 4.369 8.935 4.031.57 5.166-4.814 5.23-7.578m34.601-2.714c-.703 2.673-1.102 8.161 2.929 8.731 4.031.57 6.126-4.678 6.67-7.374-.224 2.741.337 8.365 4.368 8.935 4.031.57 5.166-4.814 5.23-7.578m34.602-2.714c-.704 2.673-1.103 8.161 2.928 8.731 4.032.57 6.126-4.678 6.67-7.374-.223 2.741.337 8.365 4.368 8.935 4.032.57 5.167-4.814 5.23-7.578m34.602-2.714c-.703 2.673-1.103 8.161 2.929 8.731 4.031.57 6.126-4.678 6.669-7.374-.223 2.741.338 8.365 4.369 8.935 4.031.57 5.166-4.814 5.23-7.578m34.601-2.714c-.703 2.673-1.102 8.161 2.929 8.731 4.031.57 6.126-4.678 6.67-7.374-.224 2.741.337 8.365 4.368 8.935 4.031.57 5.166-4.814 5.23-7.578m34.602-2.714c-.704 2.673-1.103 8.161 2.928 8.731 4.032.57 6.126-4.678 6.67-7.374-.224 2.741.337 8.365 4.368 8.935 4.032.57 5.167-4.814 5.23-7.578m34.602-2.714c-.703 2.673-1.103 8.161 2.929 8.731 4.031.57 6.126-4.678 6.669-7.374-.223 2.741.338 8.365 4.369 8.935 4.031.57 5.166-4.814 5.23-7.578m34.601-2.714c-.703 2.673-1.102 8.161 2.929 8.731 4.031.57 6.126-4.678 6.67-7.374-.224 2.741.337 8.365 4.368 8.935 4.031.57 5.166-4.814 5.23-7.578m34.602-2.714c-.704 2.673-1.103 8.161 2.928 8.731 4.032.57 6.126-4.678 6.67-7.374-.224 2.741.337 8.365 4.368 8.935 4.032.57 5.167-4.814 5.23-7.578m34.602-2.714c-.703 2.673-1.103 8.161 2.929 8.731 4.031.57 6.126-4.678 6.669-7.374-.223 2.741.338 8.365 4.369 8.935 4.031.57 5.166-4.814 5.23-7.578m34.601-2.714c-.703 2.673-1.102 8.161 2.929 8.731 4.031.57 6.126-4.678 6.67-7.374-.224 2.741.337 8.365 4.368 8.935 4.031.57 5.166-4.814 5.23-7.578m34.602-2.714c-.704 2.673-1.103 8.161 2.928 8.731 4.032.57 6.126-4.678 6.67-7.374-.224 2.741.337 8.365 4.369 8.935 4.031.57 5.166-4.814 5.229-7.578m34.602-2.714c-.703 2.673-1.103 8.161 2.929 8.731 4.031.57 6.126-4.678 6.669-7.374-.223 2.741.338 8.365 4.369 8.935 4.031.57 5.166-4.814 5.23-7.578m34.601-2.714c-.703 2.673-1.102 8.161 2.929 8.731 4.031.57 6.126-4.678 6.67-7.374-.224 2.741.337 8.365 4.368 8.935 4.031.57 5.166-4.814 5.23-7.578m34.602-2.714c-.704 2.673-1.103 8.161 2.928 8.731 4.032.57 6.126-4.678 6.67-7.374-.224 2.741.337 8.365 4.369 8.935 4.031.57 5.166-4.814 5.229-7.578m34.602-2.714c-.703 2.673-1.103 8.161 2.929 8.731 4.031.57 6.126-4.678 6.669-7.374-.223 2.741.338 8.365 4.369 8.935 4.031.57 5.166-4.814 5.23-7.578m34.603-2.714c-.71 2.673-1.1 8.161 2.93 8.731 4.03.57 6.12-4.678 6.67-7.374-.23 2.741.33 8.365 4.37 8.935 4.03.57 5.16-4.814 5.23-7.578m34.6-2.714c-.71 2.673-1.11 8.161 2.93 8.731 4.03.57 6.12-4.678 6.66-7.374-.22 2.741.34 8.365 4.37 8.935 4.03.57 5.17-4.814 5.23-7.578m34.6-2.714c-.7 2.673-1.1 8.161 2.93 8.731 4.03.57 6.13-4.678 6.67-7.374-.22 2.741.34 8.365 4.37 8.935 4.03.57 5.17-4.814 5.23-7.578m34.6-2.714c-.7 2.673-1.1 8.161 2.93 8.731 4.03.57 6.13-4.678 6.67-7.374-.22 2.741.34 8.365 4.37 8.935 4.03.57 5.17-4.814 5.23-7.578m34.6-2.714c-.7 2.673-1.1 8.161 2.93 8.731 4.03.57 6.13-4.678 6.67-7.374-.22 2.741.34 8.365 4.37 8.935 4.03.57 5.16-4.814 5.23-7.578m34.6-2.714c-.7 2.673-1.1 8.161 2.93 8.731 4.03.57 6.12-4.678 6.67-7.374-.23 2.741.34 8.365 4.37 8.935 4.03.57 5.16-4.814 5.23-7.578m34.6-2.714c-.71 2.673-1.1 8.161 2.93 8.731 4.03.57 6.12-4.678 6.67-7.374-.23 2.741.33 8.365 4.37 8.935 4.03.57 5.16-4.814 5.23-7.578m34.6-2.714c-.71 2.673-1.11 8.161 2.93 8.731 4.03.57 6.12-4.678 6.67-7.374-.23 2.741.33 8.365 4.36 8.935 4.03.57 5.17-4.814 5.23-7.578m34.61-2.714c-.71 2.673-1.11 8.161 2.92 8.731 4.03.57 6.13-4.678 6.67-7.374-.22 2.741.34 8.365 4.37 8.935 4.03.57 5.17-4.814 5.23-7.578m34.6-2.714c-.7 2.673-1.1 8.161 2.93 8.731 4.03.57 6.13-4.678 6.67-7.374-.22 2.741.34 8.365 4.37 8.935 4.03.57 5.17-4.814 5.23-7.578M.45 160.19c-.703 2.673-1.103 8.162 2.929 8.732 4.03.57 6.126-4.679 6.67-7.374-.224 2.74.337 8.365 4.368 8.935 4.031.57 5.166-4.815 5.23-7.578m34.601-2.715c-.703 2.673-1.102 8.162 2.929 8.732 4.031.57 6.126-4.679 6.67-7.374-.224 2.74.337 8.365 4.368 8.935 4.031.57 5.166-4.815 5.23-7.578m34.602-2.715c-.704 2.673-1.103 8.162 2.928 8.732 4.032.57 6.126-4.679 6.67-7.374-.223 2.74.337 8.365 4.369 8.935 4.031.57 5.166-4.815 5.229-7.578m34.602-2.715c-.703 2.673-1.103 8.162 2.929 8.732 4.031.57 6.126-4.679 6.669-7.374-.223 2.74.338 8.365 4.369 8.935 4.031.57 5.166-4.815 5.23-7.578m34.601-2.715c-.703 2.673-1.102 8.162 2.929 8.732 4.031.57 6.126-4.679 6.67-7.374-.224 2.74.337 8.365 4.368 8.935 4.031.57 5.166-4.815 5.23-7.578m34.602-2.715c-.704 2.673-1.103 8.162 2.928 8.732 4.032.57 6.126-4.679 6.67-7.374-.223 2.74.337 8.365 4.368 8.935 4.032.57 5.167-4.815 5.23-7.578m34.602-2.715c-.703 2.673-1.103 8.162 2.929 8.732 4.031.57 6.126-4.679 6.669-7.374-.223 2.74.338 8.365 4.369 8.935 4.031.57 5.166-4.815 5.23-7.578m34.601-2.715c-.703 2.673-1.102 8.162 2.929 8.732 4.031.57 6.126-4.679 6.67-7.374-.224 2.74.337 8.365 4.368 8.935 4.031.57 5.166-4.815 5.23-7.578m34.602-2.715c-.704 2.673-1.103 8.162 2.928 8.732 4.032.57 6.126-4.679 6.67-7.374-.224 2.74.337 8.365 4.368 8.935 4.032.57 5.167-4.815 5.23-7.578m34.602-2.715c-.703 2.673-1.103 8.162 2.929 8.732 4.031.57 6.126-4.679 6.669-7.374-.223 2.74.338 8.365 4.369 8.935 4.031.57 5.166-4.815 5.23-7.578m34.601-2.715c-.703 2.673-1.102 8.162 2.929 8.732 4.031.57 6.126-4.679 6.67-7.374-.224 2.74.337 8.365 4.368 8.935 4.031.57 5.166-4.815 5.23-7.578m34.602-2.715c-.704 2.673-1.103 8.162 2.928 8.732 4.032.57 6.126-4.679 6.67-7.374-.224 2.74.337 8.365 4.368 8.935 4.032.57 5.167-4.815 5.23-7.578m34.602-2.715c-.703 2.673-1.103 8.162 2.929 8.732 4.031.57 6.126-4.679 6.669-7.374-.223 2.74.338 8.365 4.369 8.935 4.031.57 5.166-4.815 5.23-7.578m34.601-2.715c-.703 2.673-1.102 8.162 2.929 8.732 4.031.57 6.126-4.679 6.67-7.374-.224 2.74.337 8.365 4.368 8.935 4.031.57 5.166-4.815 5.23-7.578m34.602-2.715c-.704 2.673-1.103 8.162 2.928 8.732 4.032.57 6.126-4.679 6.67-7.374-.224 2.74.337 8.365 4.369 8.935 4.031.57 5.166-4.815 5.229-7.578m34.602-2.715c-.703 2.673-1.103 8.162 2.929 8.732 4.031.57 6.126-4.679 6.669-7.374-.223 2.74.338 8.365 4.369 8.935 4.031.57 5.166-4.815 5.23-7.578m34.601-2.715c-.703 2.673-1.102 8.162 2.929 8.732 4.031.57 6.126-4.679 6.67-7.374-.224 2.74.337 8.365 4.368 8.935 4.031.57 5.166-4.815 5.23-7.578m34.602-2.715c-.704 2.673-1.103 8.162 2.928 8.732 4.032.57 6.126-4.679 6.67-7.374-.224 2.74.337 8.365 4.369 8.935 4.031.57 5.166-4.815 5.229-7.578m34.602-2.715c-.703 2.673-1.103 8.162 2.929 8.732 4.031.57 6.126-4.679 6.669-7.374-.223 2.74.338 8.365 4.369 8.935 4.031.57 5.166-4.815 5.23-7.578m34.603-2.715c-.71 2.673-1.1 8.162 2.93 8.732 4.03.57 6.12-4.679 6.67-7.374-.23 2.74.33 8.365 4.37 8.935 4.03.57 5.16-4.815 5.23-7.578m34.6-2.715c-.71 2.673-1.11 8.162 2.93 8.732 4.03.57 6.12-4.679 6.66-7.374-.22 2.74.34 8.365 4.37 8.935 4.03.57 5.17-4.815 5.23-7.578m34.6-2.715c-.7 2.673-1.1 8.162 2.93 8.732 4.03.57 6.13-4.679 6.67-7.374-.22 2.74.34 8.365 4.37 8.935 4.03.57 5.17-4.815 5.23-7.578m34.6-2.715c-.7 2.673-1.1 8.162 2.93 8.732 4.03.57 6.13-4.679 6.67-7.374-.22 2.74.34 8.365 4.37 8.935 4.03.57 5.17-4.815 5.23-7.578m34.6-2.715c-.7 2.673-1.1 8.162 2.93 8.732 4.03.57 6.13-4.679 6.67-7.374-.22 2.74.34 8.365 4.37 8.935 4.03.57 5.16-4.815 5.23-7.578m34.6-2.715c-.7 2.673-1.1 8.162 2.93 8.732 4.03.57 6.12-4.679 6.67-7.374-.23 2.74.34 8.365 4.37 8.935 4.03.57 5.16-4.815 5.23-7.578m34.6-2.715c-.71 2.673-1.1 8.162 2.93 8.732 4.03.57 6.12-4.679 6.67-7.374-.23 2.74.33 8.365 4.37 8.935 4.03.57 5.16-4.815 5.23-7.578m34.6-2.715c-.71 2.673-1.11 8.162 2.93 8.732 4.03.57 6.12-4.679 6.67-7.374-.23 2.74.33 8.365 4.36 8.935 4.03.57 5.17-4.815 5.23-7.578m34.61-2.715c-.71 2.673-1.11 8.162 2.92 8.732 4.03.57 6.13-4.679 6.67-7.374-.22 2.74.34 8.365 4.37 8.935 4.03.57 5.17-4.815 5.23-7.578m34.6-2.715c-.7 2.673-1.1 8.162 2.93 8.732 4.03.57 6.13-4.679 6.67-7.374-.22 2.74.34 8.365 4.37 8.935 4.03.57 5.17-4.815 5.23-7.578M.45 200.238c-.703 2.673-1.103 8.161 2.929 8.731 4.03.57 6.126-4.678 6.67-7.374-.224 2.741.337 8.365 4.368 8.935 4.031.57 5.166-4.814 5.23-7.577m34.601-2.715c-.703 2.673-1.102 8.161 2.929 8.731 4.031.57 6.126-4.678 6.67-7.374-.224 2.741.337 8.365 4.368 8.935 4.031.57 5.166-4.814 5.23-7.577m34.602-2.715c-.704 2.673-1.103 8.161 2.928 8.731 4.032.57 6.126-4.678 6.67-7.374-.223 2.741.337 8.365 4.369 8.935 4.031.57 5.166-4.814 5.229-7.577m34.602-2.715c-.703 2.673-1.103 8.161 2.929 8.731 4.031.57 6.126-4.678 6.669-7.374-.223 2.741.338 8.365 4.369 8.935 4.031.57 5.166-4.814 5.23-7.577m34.601-2.715c-.703 2.673-1.102 8.161 2.929 8.731 4.031.57 6.126-4.678 6.67-7.374-.224 2.741.337 8.365 4.368 8.935 4.031.57 5.166-4.814 5.23-7.577m34.602-2.715c-.704 2.673-1.103 8.161 2.928 8.731 4.032.57 6.126-4.678 6.67-7.374-.223 2.741.337 8.365 4.368 8.935 4.032.57 5.167-4.814 5.23-7.577m34.602-2.715c-.703 2.673-1.103 8.161 2.929 8.731 4.031.57 6.126-4.678 6.669-7.374-.223 2.741.338 8.365 4.369 8.935 4.031.57 5.166-4.814 5.23-7.577m34.601-2.715c-.703 2.673-1.102 8.161 2.929 8.731 4.031.57 6.126-4.678 6.67-7.374-.224 2.741.337 8.365 4.368 8.935 4.031.57 5.166-4.814 5.23-7.577m34.602-2.715c-.704 2.673-1.103 8.161 2.928 8.731 4.032.57 6.126-4.678 6.67-7.374-.224 2.741.337 8.365 4.368 8.935 4.032.57 5.167-4.814 5.23-7.577m34.602-2.715c-.703 2.673-1.103 8.161 2.929 8.731 4.031.57 6.126-4.678 6.669-7.374-.223 2.741.338 8.365 4.369 8.935 4.031.57 5.166-4.814 5.23-7.577m34.601-2.715c-.703 2.673-1.102 8.161 2.929 8.731 4.031.57 6.126-4.678 6.67-7.374-.224 2.741.337 8.365 4.368 8.935 4.031.57 5.166-4.814 5.23-7.577m34.602-2.715c-.704 2.673-1.103 8.161 2.928 8.731 4.032.57 6.126-4.678 6.67-7.374-.224 2.741.337 8.365 4.368 8.935 4.032.57 5.167-4.814 5.23-7.577m34.602-2.715c-.703 2.673-1.103 8.161 2.929 8.731 4.031.57 6.126-4.678 6.669-7.374-.223 2.741.338 8.365 4.369 8.935 4.031.57 5.166-4.814 5.23-7.577m34.601-2.715c-.703 2.673-1.102 8.161 2.929 8.731 4.031.57 6.126-4.678 6.67-7.374-.224 2.741.337 8.365 4.368 8.935 4.031.57 5.166-4.814 5.23-7.577m34.602-2.715c-.704 2.673-1.103 8.161 2.928 8.731 4.032.57 6.126-4.678 6.67-7.374-.224 2.741.337 8.365 4.369 8.935 4.031.57 5.166-4.814 5.229-7.577m34.602-2.715c-.703 2.673-1.103 8.161 2.929 8.731 4.031.57 6.126-4.678 6.669-7.374-.223 2.741.338 8.365 4.369 8.935 4.031.57 5.166-4.814 5.23-7.577m34.601-2.715c-.703 2.673-1.102 8.161 2.929 8.731 4.031.57 6.126-4.678 6.67-7.374-.224 2.741.337 8.365 4.368 8.935 4.031.57 5.166-4.814 5.23-7.577m34.602-2.715c-.704 2.673-1.103 8.161 2.928 8.731 4.032.57 6.126-4.678 6.67-7.374-.224 2.741.337 8.365 4.369 8.935 4.031.57 5.166-4.814 5.229-7.577m34.602-2.715c-.703 2.673-1.103 8.161 2.929 8.731 4.031.57 6.126-4.678 6.669-7.374-.223 2.741.338 8.365 4.369 8.935 4.031.57 5.166-4.814 5.23-7.577m34.603-2.715c-.71 2.673-1.1 8.161 2.93 8.731 4.03.57 6.12-4.678 6.67-7.374-.23 2.741.33 8.365 4.37 8.935 4.03.57 5.16-4.814 5.23-7.577m34.6-2.715c-.71 2.673-1.11 8.161 2.93 8.731 4.03.57 6.12-4.678 6.66-7.374-.22 2.741.34 8.365 4.37 8.935 4.03.57 5.17-4.814 5.23-7.577m34.6-2.715c-.7 2.673-1.1 8.161 2.93 8.731 4.03.57 6.13-4.678 6.67-7.374-.22 2.741.34 8.365 4.37 8.935 4.03.57 5.17-4.814 5.23-7.577m34.6-2.715c-.7 2.673-1.1 8.161 2.93 8.731 4.03.57 6.13-4.678 6.67-7.374-.22 2.741.34 8.365 4.37 8.935 4.03.57 5.17-4.814 5.23-7.577m34.6-2.715c-.7 2.673-1.1 8.161 2.93 8.731 4.03.57 6.13-4.678 6.67-7.374-.22 2.741.34 8.365 4.37 8.935 4.03.57 5.16-4.814 5.23-7.577m34.6-2.715c-.7 2.673-1.1 8.161 2.93 8.731 4.03.57 6.12-4.678 6.67-7.374-.23 2.741.34 8.365 4.37 8.935 4.03.57 5.16-4.814 5.23-7.577m34.6-2.715c-.71 2.673-1.1 8.161 2.93 8.731 4.03.57 6.12-4.678 6.67-7.374-.23 2.741.33 8.365 4.37 8.935 4.03.57 5.16-4.814 5.23-7.577m34.6-2.715c-.71 2.673-1.11 8.161 2.93 8.731 4.03.57 6.12-4.678 6.67-7.374-.23 2.741.33 8.365 4.36 8.935 4.03.57 5.17-4.814 5.23-7.577m34.61-2.715c-.71 2.673-1.11 8.161 2.92 8.731 4.03.57 6.13-4.678 6.67-7.374-.22 2.741.34 8.365 4.37 8.935 4.03.57 5.17-4.814 5.23-7.577m34.6-2.715c-.7 2.673-1.1 8.161 2.93 8.731 4.03.57 6.13-4.678 6.67-7.374-.22 2.741.34 8.365 4.37 8.935 4.03.57 5.17-4.814 5.23-7.577M.45 240.285c-.703 2.673-1.103 8.162 2.929 8.732 4.03.57 6.126-4.679 6.67-7.374-.224 2.74.337 8.365 4.368 8.935 4.031.57 5.166-4.814 5.23-7.578m34.601-2.715c-.703 2.673-1.102 8.162 2.929 8.732 4.031.57 6.126-4.679 6.67-7.374-.224 2.74.337 8.365 4.368 8.935 4.031.57 5.166-4.814 5.23-7.578m34.602-2.715c-.704 2.673-1.103 8.162 2.928 8.732 4.032.57 6.126-4.679 6.67-7.374-.223 2.74.337 8.365 4.369 8.935 4.031.57 5.166-4.814 5.229-7.578m34.602-2.715c-.703 2.673-1.103 8.162 2.929 8.732 4.031.57 6.126-4.679 6.669-7.374-.223 2.74.338 8.365 4.369 8.935 4.031.57 5.166-4.814 5.23-7.578m34.601-2.715c-.703 2.673-1.102 8.162 2.929 8.732 4.031.57 6.126-4.679 6.67-7.374-.224 2.74.337 8.365 4.368 8.935 4.031.57 5.166-4.814 5.23-7.578m34.602-2.715c-.704 2.673-1.103 8.162 2.928 8.732 4.032.57 6.126-4.679 6.67-7.374-.223 2.74.337 8.365 4.368 8.935 4.032.57 5.167-4.814 5.23-7.578m34.602-2.715c-.703 2.673-1.103 8.162 2.929 8.732 4.031.57 6.126-4.679 6.669-7.374-.223 2.74.338 8.365 4.369 8.935 4.031.57 5.166-4.814 5.23-7.578m34.601-2.715c-.703 2.673-1.102 8.162 2.929 8.732 4.031.57 6.126-4.679 6.67-7.374-.224 2.74.337 8.365 4.368 8.935 4.031.57 5.166-4.814 5.23-7.578m34.602-2.715c-.704 2.673-1.103 8.162 2.928 8.732 4.032.57 6.126-4.679 6.67-7.374-.224 2.74.337 8.365 4.368 8.935 4.032.57 5.167-4.814 5.23-7.578m34.602-2.715c-.703 2.673-1.103 8.162 2.929 8.732 4.031.57 6.126-4.679 6.669-7.374-.223 2.74.338 8.365 4.369 8.935 4.031.57 5.166-4.814 5.23-7.578m34.601-2.715c-.703 2.673-1.102 8.162 2.929 8.732 4.031.57 6.126-4.679 6.67-7.374-.224 2.74.337 8.365 4.368 8.935 4.031.57 5.166-4.814 5.23-7.578m34.602-2.715c-.704 2.673-1.103 8.162 2.928 8.732 4.032.57 6.126-4.679 6.67-7.374-.224 2.74.337 8.365 4.368 8.935 4.032.57 5.167-4.814 5.23-7.578m34.602-2.715c-.703 2.673-1.103 8.162 2.929 8.732 4.031.57 6.126-4.679 6.669-7.374-.223 2.74.338 8.365 4.369 8.935 4.031.57 5.166-4.814 5.23-7.578m34.601-2.715c-.703 2.673-1.102 8.162 2.929 8.732 4.031.57 6.126-4.679 6.67-7.374-.224 2.74.337 8.365 4.368 8.935 4.031.57 5.166-4.814 5.23-7.578m34.602-2.715c-.704 2.673-1.103 8.162 2.928 8.732 4.032.57 6.126-4.679 6.67-7.374-.224 2.74.337 8.365 4.369 8.935 4.031.57 5.166-4.814 5.229-7.578m34.602-2.715c-.703 2.673-1.103 8.162 2.929 8.732 4.031.57 6.126-4.679 6.669-7.374-.223 2.74.338 8.365 4.369 8.935 4.031.57 5.166-4.814 5.23-7.578m34.601-2.715c-.703 2.673-1.102 8.162 2.929 8.732 4.031.57 6.126-4.679 6.67-7.374-.224 2.74.337 8.365 4.368 8.935 4.031.57 5.166-4.814 5.23-7.578m34.602-2.715c-.704 2.673-1.103 8.162 2.928 8.732 4.032.57 6.126-4.679 6.67-7.374-.224 2.74.337 8.365 4.369 8.935 4.031.57 5.166-4.814 5.229-7.578m34.602-2.715c-.703 2.673-1.103 8.162 2.929 8.732 4.031.57 6.126-4.679 6.669-7.374-.223 2.74.338 8.365 4.369 8.935 4.031.57 5.166-4.814 5.23-7.578m34.603-2.715c-.71 2.673-1.1 8.162 2.93 8.732 4.03.57 6.12-4.679 6.67-7.374-.23 2.74.33 8.365 4.37 8.935 4.03.57 5.16-4.814 5.23-7.578m34.6-2.715c-.71 2.673-1.11 8.162 2.93 8.732 4.03.57 6.12-4.679 6.66-7.374-.22 2.74.34 8.365 4.37 8.935 4.03.57 5.17-4.814 5.23-7.578m34.6-2.715c-.7 2.673-1.1 8.162 2.93 8.732 4.03.57 6.13-4.679 6.67-7.374-.22 2.74.34 8.365 4.37 8.935 4.03.57 5.17-4.814 5.23-7.578m34.6-2.715c-.7 2.673-1.1 8.162 2.93 8.732 4.03.57 6.13-4.679 6.67-7.374-.22 2.74.34 8.365 4.37 8.935 4.03.57 5.17-4.814 5.23-7.578m34.6-2.715c-.7 2.673-1.1 8.162 2.93 8.732 4.03.57 6.13-4.679 6.67-7.374-.22 2.74.34 8.365 4.37 8.935 4.03.57 5.16-4.814 5.23-7.578m34.6-2.715c-.7 2.673-1.1 8.162 2.93 8.732 4.03.57 6.12-4.679 6.67-7.374-.23 2.74.34 8.365 4.37 8.935 4.03.57 5.16-4.814 5.23-7.578m34.6-2.715c-.71 2.673-1.1 8.162 2.93 8.732 4.03.57 6.12-4.679 6.67-7.374-.23 2.74.33 8.365 4.37 8.935 4.03.57 5.16-4.814 5.23-7.578m34.6-2.715c-.71 2.673-1.11 8.162 2.93 8.732 4.03.57 6.12-4.679 6.67-7.374-.23 2.74.33 8.365 4.36 8.935 4.03.57 5.17-4.814 5.23-7.578m34.61-2.715c-.71 2.673-1.11 8.162 2.92 8.732 4.03.57 6.13-4.679 6.67-7.374-.22 2.74.34 8.365 4.37 8.935 4.03.57 5.17-4.814 5.23-7.578m34.6-2.715c-.7 2.673-1.1 8.162 2.93 8.732 4.03.57 6.13-4.679 6.67-7.374-.22 2.74.34 8.365 4.37 8.935 4.03.57 5.17-4.814 5.23-7.578M.45 280.333c-.703 2.673-1.103 8.161 2.929 8.731 4.03.57 6.126-4.678 6.67-7.374-.224 2.741.337 8.365 4.368 8.935 4.031.57 5.166-4.814 5.23-7.577m34.601-2.715c-.703 2.673-1.102 8.161 2.929 8.731 4.031.57 6.126-4.678 6.67-7.374-.224 2.741.337 8.365 4.368 8.935 4.031.57 5.166-4.814 5.23-7.577m34.602-2.715c-.704 2.673-1.103 8.161 2.928 8.731 4.032.57 6.126-4.678 6.67-7.374-.223 2.741.337 8.365 4.369 8.935 4.031.57 5.166-4.814 5.229-7.577m34.602-2.715c-.703 2.673-1.103 8.161 2.929 8.731 4.031.57 6.126-4.678 6.669-7.374-.223 2.741.338 8.365 4.369 8.935 4.031.57 5.166-4.814 5.23-7.577m34.601-2.715c-.703 2.673-1.102 8.161 2.929 8.731 4.031.57 6.126-4.678 6.67-7.374-.224 2.741.337 8.365 4.368 8.935 4.031.57 5.166-4.814 5.23-7.577m34.602-2.715c-.704 2.673-1.103 8.161 2.928 8.731 4.032.57 6.126-4.678 6.67-7.374-.223 2.741.337 8.365 4.368 8.935 4.032.57 5.167-4.814 5.23-7.577m34.602-2.715c-.703 2.673-1.103 8.161 2.929 8.731 4.031.57 6.126-4.678 6.669-7.374-.223 2.741.338 8.365 4.369 8.935 4.031.57 5.166-4.814 5.23-7.577m34.601-2.715c-.703 2.673-1.102 8.161 2.929 8.731 4.031.57 6.126-4.678 6.67-7.374-.224 2.741.337 8.365 4.368 8.935 4.031.57 5.166-4.814 5.23-7.577m34.602-2.715c-.704 2.673-1.103 8.161 2.928 8.731 4.032.57 6.126-4.678 6.67-7.374-.224 2.741.337 8.365 4.368 8.935 4.032.57 5.167-4.814 5.23-7.577m34.602-2.715c-.703 2.673-1.103 8.161 2.929 8.731 4.031.57 6.126-4.678 6.669-7.374-.223 2.741.338 8.365 4.369 8.935 4.031.57 5.166-4.814 5.23-7.577m34.601-2.715c-.703 2.673-1.102 8.161 2.929 8.731 4.031.57 6.126-4.678 6.67-7.374-.224 2.741.337 8.365 4.368 8.935 4.031.57 5.166-4.814 5.23-7.577m34.602-2.715c-.704 2.673-1.103 8.161 2.928 8.731 4.032.57 6.126-4.678 6.67-7.374-.224 2.741.337 8.365 4.368 8.935 4.032.57 5.167-4.814 5.23-7.577m34.602-2.715c-.703 2.673-1.103 8.161 2.929 8.731 4.031.57 6.126-4.678 6.669-7.374-.223 2.741.338 8.365 4.369 8.935 4.031.57 5.166-4.814 5.23-7.577m34.601-2.715c-.703 2.673-1.102 8.161 2.929 8.731 4.031.57 6.126-4.678 6.67-7.374-.224 2.741.337 8.365 4.368 8.935 4.031.57 5.166-4.814 5.23-7.577m34.602-2.715c-.704 2.673-1.103 8.161 2.928 8.731 4.032.57 6.126-4.678 6.67-7.374-.224 2.741.337 8.365 4.369 8.935 4.031.57 5.166-4.814 5.229-7.577m34.602-2.715c-.703 2.673-1.103 8.161 2.929 8.731 4.031.57 6.126-4.678 6.669-7.374-.223 2.741.338 8.365 4.369 8.935 4.031.57 5.166-4.814 5.23-7.577m34.601-2.715c-.703 2.673-1.102 8.161 2.929 8.731 4.031.57 6.126-4.678 6.67-7.374-.224 2.741.337 8.365 4.368 8.935 4.031.57 5.166-4.814 5.23-7.577m34.602-2.715c-.704 2.673-1.103 8.161 2.928 8.731 4.032.57 6.126-4.678 6.67-7.374-.224 2.741.337 8.365 4.369 8.935 4.031.57 5.166-4.814 5.229-7.577m34.602-2.715c-.703 2.673-1.103 8.161 2.929 8.731 4.031.57 6.126-4.678 6.669-7.374-.223 2.741.338 8.365 4.369 8.935 4.031.57 5.166-4.814 5.23-7.577m34.603-2.715c-.71 2.673-1.1 8.161 2.93 8.731 4.03.57 6.12-4.678 6.67-7.374-.23 2.741.33 8.365 4.37 8.935 4.03.57 5.16-4.814 5.23-7.577m34.6-2.715c-.71 2.673-1.11 8.161 2.93 8.731 4.03.57 6.12-4.678 6.66-7.374-.22 2.741.34 8.365 4.37 8.935 4.03.57 5.17-4.814 5.23-7.577m34.6-2.715c-.7 2.673-1.1 8.161 2.93 8.731 4.03.57 6.13-4.678 6.67-7.374-.22 2.741.34 8.365 4.37 8.935 4.03.57 5.17-4.814 5.23-7.577m34.6-2.715c-.7 2.673-1.1 8.161 2.93 8.731 4.03.57 6.13-4.678 6.67-7.374-.22 2.741.34 8.365 4.37 8.935 4.03.57 5.17-4.814 5.23-7.577m34.6-2.715c-.7 2.673-1.1 8.161 2.93 8.731 4.03.57 6.13-4.678 6.67-7.374-.22 2.741.34 8.365 4.37 8.935 4.03.57 5.16-4.814 5.23-7.577m34.6-2.715c-.7 2.673-1.1 8.161 2.93 8.731 4.03.57 6.12-4.678 6.67-7.374-.23 2.741.34 8.365 4.37 8.935 4.03.57 5.16-4.814 5.23-7.577m34.6-2.715c-.71 2.673-1.1 8.161 2.93 8.731 4.03.57 6.12-4.678 6.67-7.374-.23 2.741.33 8.365 4.37 8.935 4.03.57 5.16-4.814 5.23-7.577m34.6-2.715c-.71 2.673-1.11 8.161 2.93 8.731 4.03.57 6.12-4.678 6.67-7.374-.23 2.741.33 8.365 4.36 8.935 4.03.57 5.17-4.814 5.23-7.577m34.61-2.715c-.71 2.673-1.11 8.161 2.92 8.731 4.03.57 6.13-4.678 6.67-7.374-.22 2.741.34 8.365 4.37 8.935 4.03.57 5.17-4.814 5.23-7.577m34.6-2.715c-.7 2.673-1.1 8.161 2.93 8.731 4.03.57 6.13-4.678 6.67-7.374-.22 2.741.34 8.365 4.37 8.935 4.03.57 5.17-4.814 5.23-7.577M.45 320.38c-.703 2.673-1.103 8.162 2.929 8.732 4.03.57 6.126-4.679 6.67-7.374-.224 2.741.337 8.365 4.368 8.935 4.031.57 5.166-4.814 5.23-7.578m34.601-2.715c-.703 2.673-1.102 8.162 2.929 8.732 4.031.57 6.126-4.679 6.67-7.374-.224 2.741.337 8.365 4.368 8.935 4.031.57 5.166-4.814 5.23-7.578m34.602-2.715c-.704 2.673-1.103 8.162 2.928 8.732 4.032.57 6.126-4.679 6.67-7.374-.223 2.741.337 8.365 4.369 8.935 4.031.57 5.166-4.814 5.229-7.578m34.602-2.715c-.703 2.673-1.103 8.162 2.929 8.732 4.031.57 6.126-4.679 6.669-7.374-.223 2.741.338 8.365 4.369 8.935 4.031.57 5.166-4.814 5.23-7.578m34.601-2.715c-.703 2.673-1.102 8.162 2.929 8.732 4.031.57 6.126-4.679 6.67-7.374-.224 2.741.337 8.365 4.368 8.935 4.031.57 5.166-4.814 5.23-7.578m34.602-2.715c-.704 2.673-1.103 8.162 2.928 8.732 4.032.57 6.126-4.679 6.67-7.374-.223 2.741.337 8.365 4.368 8.935 4.032.57 5.167-4.814 5.23-7.578m34.602-2.715c-.703 2.673-1.103 8.162 2.929 8.732 4.031.57 6.126-4.679 6.669-7.374-.223 2.741.338 8.365 4.369 8.935 4.031.57 5.166-4.814 5.23-7.578m34.601-2.715c-.703 2.673-1.102 8.162 2.929 8.732 4.031.57 6.126-4.679 6.67-7.374-.224 2.741.337 8.365 4.368 8.935 4.031.57 5.166-4.814 5.23-7.578m34.602-2.715c-.704 2.673-1.103 8.162 2.928 8.732 4.032.57 6.126-4.679 6.67-7.374-.224 2.741.337 8.365 4.368 8.935 4.032.57 5.167-4.814 5.23-7.578m34.602-2.715c-.703 2.673-1.103 8.162 2.929 8.732 4.031.57 6.126-4.679 6.669-7.374-.223 2.741.338 8.365 4.369 8.935 4.031.57 5.166-4.814 5.23-7.578m34.601-2.715c-.703 2.673-1.102 8.162 2.929 8.732 4.031.57 6.126-4.679 6.67-7.374-.224 2.741.337 8.365 4.368 8.935 4.031.57 5.166-4.814 5.23-7.578m34.602-2.715c-.704 2.673-1.103 8.162 2.928 8.732 4.032.57 6.126-4.679 6.67-7.374-.224 2.741.337 8.365 4.368 8.935 4.032.57 5.167-4.814 5.23-7.578m34.602-2.715c-.703 2.673-1.103 8.162 2.929 8.732 4.031.57 6.126-4.679 6.669-7.374-.223 2.741.338 8.365 4.369 8.935 4.031.57 5.166-4.814 5.23-7.578m34.601-2.715c-.703 2.673-1.102 8.162 2.929 8.732 4.031.57 6.126-4.679 6.67-7.374-.224 2.741.337 8.365 4.368 8.935 4.031.57 5.166-4.814 5.23-7.578m34.602-2.715c-.704 2.673-1.103 8.162 2.928 8.732 4.032.57 6.126-4.679 6.67-7.374-.224 2.741.337 8.365 4.369 8.935 4.031.57 5.166-4.814 5.229-7.578m34.602-2.715c-.703 2.673-1.103 8.162 2.929 8.732 4.031.57 6.126-4.679 6.669-7.374-.223 2.741.338 8.365 4.369 8.935 4.031.57 5.166-4.814 5.23-7.578m34.601-2.715c-.703 2.673-1.102 8.162 2.929 8.732 4.031.57 6.126-4.679 6.67-7.374-.224 2.741.337 8.365 4.368 8.935 4.031.57 5.166-4.814 5.23-7.578m34.602-2.715c-.704 2.673-1.103 8.162 2.928 8.732 4.032.57 6.126-4.679 6.67-7.374-.224 2.741.337 8.365 4.369 8.935 4.031.57 5.166-4.814 5.229-7.578m34.602-2.715c-.703 2.673-1.103 8.162 2.929 8.732 4.031.57 6.126-4.679 6.669-7.374-.223 2.741.338 8.365 4.369 8.935 4.031.57 5.166-4.814 5.23-7.578m34.603-2.715c-.71 2.673-1.1 8.162 2.93 8.732 4.03.57 6.12-4.679 6.67-7.374-.23 2.741.33 8.365 4.37 8.935 4.03.57 5.16-4.814 5.23-7.578m34.6-2.715c-.71 2.673-1.11 8.162 2.93 8.732 4.03.57 6.12-4.679 6.66-7.374-.22 2.741.34 8.365 4.37 8.935 4.03.57 5.17-4.814 5.23-7.578m34.6-2.715c-.7 2.673-1.1 8.162 2.93 8.732 4.03.57 6.13-4.679 6.67-7.374-.22 2.741.34 8.365 4.37 8.935 4.03.57 5.17-4.814 5.23-7.578m34.6-2.715c-.7 2.673-1.1 8.162 2.93 8.732 4.03.57 6.13-4.679 6.67-7.374-.22 2.741.34 8.365 4.37 8.935 4.03.57 5.17-4.814 5.23-7.578m34.6-2.715c-.7 2.673-1.1 8.162 2.93 8.732 4.03.57 6.13-4.679 6.67-7.374-.22 2.741.34 8.365 4.37 8.935 4.03.57 5.16-4.814 5.23-7.578m34.6-2.715c-.7 2.673-1.1 8.162 2.93 8.732 4.03.57 6.12-4.679 6.67-7.374-.23 2.741.34 8.365 4.37 8.935 4.03.57 5.16-4.814 5.23-7.578m34.6-2.715c-.71 2.673-1.1 8.162 2.93 8.732 4.03.57 6.12-4.679 6.67-7.374-.23 2.741.33 8.365 4.37 8.935 4.03.57 5.16-4.814 5.23-7.578m34.6-2.715c-.71 2.673-1.11 8.162 2.93 8.732 4.03.57 6.12-4.679 6.67-7.374-.23 2.741.33 8.365 4.36 8.935 4.03.57 5.17-4.814 5.23-7.578m34.61-2.715c-.71 2.673-1.11 8.162 2.92 8.732 4.03.57 6.13-4.679 6.67-7.374-.22 2.741.34 8.365 4.37 8.935 4.03.57 5.17-4.814 5.23-7.578m34.6-2.715c-.7 2.673-1.1 8.162 2.93 8.732 4.03.57 6.13-4.679 6.67-7.374-.22 2.741.34 8.365 4.37 8.935 4.03.57 5.17-4.814 5.23-7.578M.45 360.428c-.703 2.673-1.103 8.161 2.929 8.731 4.03.57 6.126-4.678 6.67-7.374-.224 2.741.337 8.365 4.368 8.935 4.031.57 5.166-4.814 5.23-7.577m34.601-2.715c-.703 2.673-1.102 8.161 2.929 8.731 4.031.57 6.126-4.678 6.67-7.374-.224 2.741.337 8.365 4.368 8.935 4.031.57 5.166-4.814 5.23-7.577m34.602-2.715c-.704 2.673-1.103 8.161 2.928 8.731 4.032.57 6.126-4.678 6.67-7.374-.223 2.741.337 8.365 4.369 8.935 4.031.57 5.166-4.814 5.229-7.577m34.602-2.715c-.703 2.673-1.103 8.161 2.929 8.731 4.031.57 6.126-4.678 6.669-7.374-.223 2.741.338 8.365 4.369 8.935 4.031.57 5.166-4.814 5.23-7.577m34.601-2.715c-.703 2.673-1.102 8.161 2.929 8.731 4.031.57 6.126-4.678 6.67-7.374-.224 2.741.337 8.365 4.368 8.935 4.031.57 5.166-4.814 5.23-7.577m34.602-2.715c-.704 2.673-1.103 8.161 2.928 8.731 4.032.57 6.126-4.678 6.67-7.374-.223 2.741.337 8.365 4.368 8.935 4.032.57 5.167-4.814 5.23-7.577m34.602-2.715c-.703 2.673-1.103 8.161 2.929 8.731 4.031.57 6.126-4.678 6.669-7.374-.223 2.741.338 8.365 4.369 8.935 4.031.57 5.166-4.814 5.23-7.577m34.601-2.715c-.703 2.673-1.102 8.161 2.929 8.731 4.031.57 6.126-4.678 6.67-7.374-.224 2.741.337 8.365 4.368 8.935 4.031.57 5.166-4.814 5.23-7.577m34.602-2.715c-.704 2.673-1.103 8.161 2.928 8.731 4.032.57 6.126-4.678 6.67-7.374-.224 2.741.337 8.365 4.368 8.935 4.032.57 5.167-4.814 5.23-7.577m34.602-2.715c-.703 2.673-1.103 8.161 2.929 8.731 4.031.57 6.126-4.678 6.669-7.374-.223 2.741.338 8.365 4.369 8.935 4.031.57 5.166-4.814 5.23-7.577m34.601-2.715c-.703 2.673-1.102 8.161 2.929 8.731 4.031.57 6.126-4.678 6.67-7.374-.224 2.741.337 8.365 4.368 8.935 4.031.57 5.166-4.814 5.23-7.577m34.602-2.715c-.704 2.673-1.103 8.161 2.928 8.731 4.032.57 6.126-4.678 6.67-7.374-.224 2.741.337 8.365 4.368 8.935 4.032.57 5.167-4.814 5.23-7.577m34.602-2.715c-.703 2.673-1.103 8.161 2.929 8.731 4.031.57 6.126-4.678 6.669-7.374-.223 2.741.338 8.365 4.369 8.935 4.031.57 5.166-4.814 5.23-7.577m34.601-2.715c-.703 2.673-1.102 8.161 2.929 8.731 4.031.57 6.126-4.678 6.67-7.374-.224 2.741.337 8.365 4.368 8.935 4.031.57 5.166-4.814 5.23-7.577m34.602-2.715c-.704 2.673-1.103 8.161 2.928 8.731 4.032.57 6.126-4.678 6.67-7.374-.224 2.741.337 8.365 4.369 8.935 4.031.57 5.166-4.814 5.229-7.577m34.602-2.715c-.703 2.673-1.103 8.161 2.929 8.731 4.031.57 6.126-4.678 6.669-7.374-.223 2.741.338 8.365 4.369 8.935 4.031.57 5.166-4.814 5.23-7.577m34.601-2.715c-.703 2.673-1.102 8.161 2.929 8.731 4.031.57 6.126-4.678 6.67-7.374-.224 2.741.337 8.365 4.368 8.935 4.031.57 5.166-4.814 5.23-7.577m34.602-2.715c-.704 2.673-1.103 8.161 2.928 8.731 4.032.57 6.126-4.678 6.67-7.374-.224 2.741.337 8.365 4.369 8.935 4.031.57 5.166-4.814 5.229-7.577m34.602-2.715c-.703 2.673-1.103 8.161 2.929 8.731 4.031.57 6.126-4.678 6.669-7.374-.223 2.741.338 8.365 4.369 8.935 4.031.57 5.166-4.814 5.23-7.577m34.603-2.715c-.71 2.673-1.1 8.161 2.93 8.731 4.03.57 6.12-4.678 6.67-7.374-.23 2.741.33 8.365 4.37 8.935 4.03.57 5.16-4.814 5.23-7.577m34.6-2.715c-.71 2.673-1.11 8.161 2.93 8.731 4.03.57 6.12-4.678 6.66-7.374-.22 2.741.34 8.365 4.37 8.935 4.03.57 5.17-4.814 5.23-7.577m34.6-2.715c-.7 2.673-1.1 8.161 2.93 8.731 4.03.57 6.13-4.678 6.67-7.374-.22 2.741.34 8.365 4.37 8.935 4.03.57 5.17-4.814 5.23-7.577m34.6-2.715c-.7 2.673-1.1 8.161 2.93 8.731 4.03.57 6.13-4.678 6.67-7.374-.22 2.741.34 8.365 4.37 8.935 4.03.57 5.17-4.814 5.23-7.577m34.6-2.715c-.7 2.673-1.1 8.161 2.93 8.731 4.03.57 6.13-4.678 6.67-7.374-.22 2.741.34 8.365 4.37 8.935 4.03.57 5.16-4.814 5.23-7.577m34.6-2.715c-.7 2.673-1.1 8.161 2.93 8.731 4.03.57 6.12-4.678 6.67-7.374-.23 2.741.34 8.365 4.37 8.935 4.03.57 5.16-4.814 5.23-7.577m34.6-2.715c-.71 2.673-1.1 8.161 2.93 8.731 4.03.57 6.12-4.678 6.67-7.374-.23 2.741.33 8.365 4.37 8.935 4.03.57 5.16-4.814 5.23-7.577m34.6-2.715c-.71 2.673-1.11 8.161 2.93 8.731 4.03.57 6.12-4.678 6.67-7.374-.23 2.741.33 8.365 4.36 8.935 4.03.57 5.17-4.814 5.23-7.577m34.61-2.715c-.71 2.673-1.11 8.161 2.92 8.731 4.03.57 6.13-4.678 6.67-7.374-.22 2.741.34 8.365 4.37 8.935 4.03.57 5.17-4.814 5.23-7.577m34.6-2.715c-.7 2.673-1.1 8.161 2.93 8.731 4.03.57 6.13-4.678 6.67-7.374-.22 2.741.34 8.365 4.37 8.935 4.03.57 5.17-4.814 5.23-7.577M.45 400.475c-.703 2.673-1.103 8.162 2.929 8.732 4.03.57 6.126-4.679 6.67-7.374-.224 2.741.337 8.365 4.368 8.935 4.031.57 5.166-4.814 5.23-7.578m34.601-2.715c-.703 2.673-1.102 8.162 2.929 8.732 4.031.57 6.126-4.679 6.67-7.374-.224 2.741.337 8.365 4.368 8.935 4.031.57 5.166-4.814 5.23-7.578m34.602-2.715c-.704 2.673-1.103 8.162 2.928 8.732 4.032.57 6.126-4.679 6.67-7.374-.223 2.741.337 8.365 4.369 8.935 4.031.57 5.166-4.814 5.229-7.578m34.602-2.715c-.703 2.673-1.103 8.162 2.929 8.732 4.031.57 6.126-4.679 6.669-7.374-.223 2.741.338 8.365 4.369 8.935 4.031.57 5.166-4.814 5.23-7.578m34.601-2.715c-.703 2.673-1.102 8.162 2.929 8.732 4.031.57 6.126-4.679 6.67-7.374-.224 2.741.337 8.365 4.368 8.935 4.031.57 5.166-4.814 5.23-7.578m34.602-2.715c-.704 2.673-1.103 8.162 2.928 8.732 4.032.57 6.126-4.679 6.67-7.374-.223 2.741.337 8.365 4.368 8.935 4.032.57 5.167-4.814 5.23-7.578m34.602-2.715c-.703 2.673-1.103 8.162 2.929 8.732 4.031.57 6.126-4.679 6.669-7.374-.223 2.741.338 8.365 4.369 8.935 4.031.57 5.166-4.814 5.23-7.578m34.601-2.715c-.703 2.673-1.102 8.162 2.929 8.732 4.031.57 6.126-4.679 6.67-7.374-.224 2.741.337 8.365 4.368 8.935 4.031.57 5.166-4.814 5.23-7.578m34.602-2.715c-.704 2.673-1.103 8.162 2.928 8.732 4.032.57 6.126-4.679 6.67-7.374-.224 2.741.337 8.365 4.368 8.935 4.032.57 5.167-4.814 5.23-7.578m34.602-2.715c-.703 2.673-1.103 8.162 2.929 8.732 4.031.57 6.126-4.679 6.669-7.374-.223 2.741.338 8.365 4.369 8.935 4.031.57 5.166-4.814 5.23-7.578m34.601-2.715c-.703 2.673-1.102 8.162 2.929 8.732 4.031.57 6.126-4.679 6.67-7.374-.224 2.741.337 8.365 4.368 8.935 4.031.57 5.166-4.814 5.23-7.578m34.602-2.715c-.704 2.673-1.103 8.162 2.928 8.732 4.032.57 6.126-4.679 6.67-7.374-.224 2.741.337 8.365 4.368 8.935 4.032.57 5.167-4.814 5.23-7.578m34.602-2.715c-.703 2.673-1.103 8.162 2.929 8.732 4.031.57 6.126-4.679 6.669-7.374-.223 2.741.338 8.365 4.369 8.935 4.031.57 5.166-4.814 5.23-7.578m34.601-2.715c-.703 2.673-1.102 8.162 2.929 8.732 4.031.57 6.126-4.679 6.67-7.374-.224 2.741.337 8.365 4.368 8.935 4.031.57 5.166-4.814 5.23-7.578m34.602-2.715c-.704 2.673-1.103 8.162 2.928 8.732 4.032.57 6.126-4.679 6.67-7.374-.224 2.741.337 8.365 4.369 8.935 4.031.57 5.166-4.814 5.229-7.578m34.602-2.715c-.703 2.673-1.103 8.162 2.929 8.732 4.031.57 6.126-4.679 6.669-7.374-.223 2.741.338 8.365 4.369 8.935 4.031.57 5.166-4.814 5.23-7.578m34.601-2.715c-.703 2.673-1.102 8.162 2.929 8.732 4.031.57 6.126-4.679 6.67-7.374-.224 2.741.337 8.365 4.368 8.935 4.031.57 5.166-4.814 5.23-7.578m34.602-2.715c-.704 2.673-1.103 8.162 2.928 8.732 4.032.57 6.126-4.679 6.67-7.374-.224 2.741.337 8.365 4.369 8.935 4.031.57 5.166-4.814 5.229-7.578m34.602-2.715c-.703 2.673-1.103 8.162 2.929 8.732 4.031.57 6.126-4.679 6.669-7.374-.223 2.741.338 8.365 4.369 8.935 4.031.57 5.166-4.814 5.23-7.578m34.603-2.715c-.71 2.673-1.1 8.162 2.93 8.732 4.03.57 6.12-4.679 6.67-7.374-.23 2.741.33 8.365 4.37 8.935 4.03.57 5.16-4.814 5.23-7.578m34.6-2.715c-.71 2.673-1.11 8.162 2.93 8.732 4.03.57 6.12-4.679 6.66-7.374-.22 2.741.34 8.365 4.37 8.935 4.03.57 5.17-4.814 5.23-7.578m34.6-2.715c-.7 2.673-1.1 8.162 2.93 8.732 4.03.57 6.13-4.679 6.67-7.374-.22 2.741.34 8.365 4.37 8.935 4.03.57 5.17-4.814 5.23-7.578m34.6-2.715c-.7 2.673-1.1 8.162 2.93 8.732 4.03.57 6.13-4.679 6.67-7.374-.22 2.741.34 8.365 4.37 8.935 4.03.57 5.17-4.814 5.23-7.578m34.6-2.715c-.7 2.673-1.1 8.162 2.93 8.732 4.03.57 6.13-4.679 6.67-7.374-.22 2.741.34 8.365 4.37 8.935 4.03.57 5.16-4.814 5.23-7.578m34.6-2.715c-.7 2.673-1.1 8.162 2.93 8.732 4.03.57 6.12-4.679 6.67-7.374-.23 2.741.34 8.365 4.37 8.935 4.03.57 5.16-4.814 5.23-7.578m34.6-2.715c-.71 2.673-1.1 8.162 2.93 8.732 4.03.57 6.12-4.679 6.67-7.374-.23 2.741.33 8.365 4.37 8.935 4.03.57 5.16-4.814 5.23-7.578m34.6-2.715c-.71 2.673-1.11 8.162 2.93 8.732 4.03.57 6.12-4.679 6.67-7.374-.23 2.741.33 8.365 4.36 8.935 4.03.57 5.17-4.814 5.23-7.578m34.61-2.715c-.71 2.673-1.11 8.162 2.92 8.732 4.03.57 6.13-4.679 6.67-7.374-.22 2.741.34 8.365 4.37 8.935 4.03.57 5.17-4.814 5.23-7.578m34.6-2.715c-.7 2.673-1.1 8.162 2.93 8.732 4.03.57 6.13-4.679 6.67-7.374-.22 2.741.34 8.365 4.37 8.935 4.03.57 5.17-4.814 5.23-7.578M.45 440.523c-.703 2.673-1.103 8.161 2.929 8.731 4.03.571 6.126-4.678 6.67-7.374-.224 2.741.337 8.365 4.368 8.935 4.031.571 5.166-4.814 5.23-7.577m34.601-2.715c-.703 2.673-1.102 8.161 2.929 8.731 4.031.571 6.126-4.678 6.67-7.374-.224 2.741.337 8.365 4.368 8.935 4.031.571 5.166-4.814 5.23-7.577m34.602-2.715c-.704 2.673-1.103 8.161 2.928 8.731 4.032.571 6.126-4.678 6.67-7.374-.223 2.741.337 8.365 4.369 8.935 4.031.571 5.166-4.814 5.229-7.577m34.602-2.715c-.703 2.673-1.103 8.161 2.929 8.731 4.031.571 6.126-4.678 6.669-7.374-.223 2.741.338 8.365 4.369 8.935 4.031.571 5.166-4.814 5.23-7.577m34.601-2.715c-.703 2.673-1.102 8.161 2.929 8.731 4.031.571 6.126-4.678 6.67-7.374-.224 2.741.337 8.365 4.368 8.935 4.031.571 5.166-4.814 5.23-7.577m34.602-2.715c-.704 2.673-1.103 8.161 2.928 8.731 4.032.571 6.126-4.678 6.67-7.374-.223 2.741.337 8.365 4.368 8.935 4.032.571 5.167-4.814 5.23-7.577m34.602-2.715c-.703 2.673-1.103 8.161 2.929 8.731 4.031.571 6.126-4.678 6.669-7.374-.223 2.741.338 8.365 4.369 8.935 4.031.571 5.166-4.814 5.23-7.577m34.601-2.715c-.703 2.673-1.102 8.161 2.929 8.731 4.031.571 6.126-4.678 6.67-7.374-.224 2.741.337 8.365 4.368 8.935 4.031.571 5.166-4.814 5.23-7.577m34.602-2.715c-.704 2.673-1.103 8.161 2.928 8.731 4.032.571 6.126-4.678 6.67-7.374-.224 2.741.337 8.365 4.368 8.935 4.032.571 5.167-4.814 5.23-7.577m34.602-2.715c-.703 2.673-1.103 8.161 2.929 8.731 4.031.571 6.126-4.678 6.669-7.374-.223 2.741.338 8.365 4.369 8.935 4.031.571 5.166-4.814 5.23-7.577m34.601-2.715c-.703 2.673-1.102 8.161 2.929 8.731 4.031.571 6.126-4.678 6.67-7.374-.224 2.741.337 8.365 4.368 8.935 4.031.571 5.166-4.814 5.23-7.577m34.602-2.715c-.704 2.673-1.103 8.161 2.928 8.731 4.032.571 6.126-4.678 6.67-7.374-.224 2.741.337 8.365 4.368 8.935 4.032.571 5.167-4.814 5.23-7.577m34.602-2.715c-.703 2.673-1.103 8.161 2.929 8.731 4.031.571 6.126-4.678 6.669-7.374-.223 2.741.338 8.365 4.369 8.935 4.031.571 5.166-4.814 5.23-7.577m34.601-2.715c-.703 2.673-1.102 8.161 2.929 8.731 4.031.571 6.126-4.678 6.67-7.374-.224 2.741.337 8.365 4.368 8.935 4.031.571 5.166-4.814 5.23-7.577m34.602-2.715c-.704 2.673-1.103 8.161 2.928 8.731 4.032.571 6.126-4.678 6.67-7.374-.224 2.741.337 8.365 4.369 8.935 4.031.571 5.166-4.814 5.229-7.577m34.602-2.715c-.703 2.673-1.103 8.161 2.929 8.731 4.031.571 6.126-4.678 6.669-7.374-.223 2.741.338 8.365 4.369 8.935 4.031.571 5.166-4.814 5.23-7.577m34.601-2.715c-.703 2.673-1.102 8.161 2.929 8.731 4.031.571 6.126-4.678 6.67-7.374-.224 2.741.337 8.365 4.368 8.935 4.031.571 5.166-4.814 5.23-7.577m34.602-2.715c-.704 2.673-1.103 8.161 2.928 8.731 4.032.571 6.126-4.678 6.67-7.374-.224 2.741.337 8.365 4.369 8.935 4.031.571 5.166-4.814 5.229-7.577m34.602-2.715c-.703 2.673-1.103 8.161 2.929 8.731 4.031.571 6.126-4.678 6.669-7.374-.223 2.741.338 8.365 4.369 8.935 4.031.571 5.166-4.814 5.23-7.577m34.603-2.715c-.71 2.673-1.1 8.161 2.93 8.731 4.03.571 6.12-4.678 6.67-7.374-.23 2.741.33 8.365 4.37 8.935 4.03.571 5.16-4.814 5.23-7.577m34.6-2.715c-.71 2.673-1.11 8.161 2.93 8.731 4.03.571 6.12-4.678 6.66-7.374-.22 2.741.34 8.365 4.37 8.935 4.03.571 5.17-4.814 5.23-7.577m34.6-2.715c-.7 2.673-1.1 8.161 2.93 8.731 4.03.571 6.13-4.678 6.67-7.374-.22 2.741.34 8.365 4.37 8.935 4.03.571 5.17-4.814 5.23-7.577m34.6-2.715c-.7 2.673-1.1 8.161 2.93 8.731 4.03.571 6.13-4.678 6.67-7.374-.22 2.741.34 8.365 4.37 8.935 4.03.571 5.17-4.814 5.23-7.577m34.6-2.715c-.7 2.673-1.1 8.161 2.93 8.731 4.03.571 6.13-4.678 6.67-7.374-.22 2.741.34 8.365 4.37 8.935 4.03.571 5.16-4.814 5.23-7.577m34.6-2.715c-.7 2.673-1.1 8.161 2.93 8.731 4.03.571 6.12-4.678 6.67-7.374-.23 2.741.34 8.365 4.37 8.935 4.03.571 5.16-4.814 5.23-7.577m34.6-2.715c-.71 2.673-1.1 8.161 2.93 8.731 4.03.571 6.12-4.678 6.67-7.374-.23 2.741.33 8.365 4.37 8.935 4.03.571 5.16-4.814 5.23-7.577m34.6-2.715c-.71 2.673-1.11 8.161 2.93 8.731 4.03.571 6.12-4.678 6.67-7.374-.23 2.741.33 8.365 4.36 8.935 4.03.571 5.17-4.814 5.23-7.577m34.61-2.715c-.71 2.673-1.11 8.161 2.92 8.731 4.03.571 6.13-4.678 6.67-7.374-.22 2.741.34 8.365 4.37 8.935 4.03.571 5.17-4.814 5.23-7.577m34.6-2.715c-.7 2.673-1.1 8.161 2.93 8.731 4.03.571 6.13-4.678 6.67-7.374-.22 2.741.34 8.365 4.37 8.935 4.03.571 5.17-4.814 5.23-7.577M.45 480.571c-.703 2.672-1.103 8.161 2.929 8.731 4.03.57 6.126-4.678 6.67-7.374-.224 2.741.337 8.365 4.368 8.935 4.031.57 5.166-4.814 5.23-7.578m34.601-2.714c-.703 2.672-1.102 8.161 2.929 8.731 4.031.57 6.126-4.678 6.67-7.374-.224 2.741.337 8.365 4.368 8.935 4.031.57 5.166-4.814 5.23-7.578m34.602-2.714c-.704 2.672-1.103 8.161 2.928 8.731 4.032.57 6.126-4.678 6.67-7.374-.223 2.741.337 8.365 4.369 8.935 4.031.57 5.166-4.814 5.229-7.578m34.602-2.714c-.703 2.672-1.103 8.161 2.929 8.731 4.031.57 6.126-4.678 6.669-7.374-.223 2.741.338 8.365 4.369 8.935 4.031.57 5.166-4.814 5.23-7.578m34.601-2.714c-.703 2.672-1.102 8.161 2.929 8.731 4.031.57 6.126-4.678 6.67-7.374-.224 2.741.337 8.365 4.368 8.935 4.031.57 5.166-4.814 5.23-7.578m34.602-2.714c-.704 2.672-1.103 8.161 2.928 8.731 4.032.57 6.126-4.678 6.67-7.374-.223 2.741.337 8.365 4.368 8.935 4.032.57 5.167-4.814 5.23-7.578m34.602-2.714c-.703 2.672-1.103 8.161 2.929 8.731 4.031.57 6.126-4.678 6.669-7.374-.223 2.741.338 8.365 4.369 8.935 4.031.57 5.166-4.814 5.23-7.578m34.601-2.714c-.703 2.672-1.102 8.161 2.929 8.731 4.031.57 6.126-4.678 6.67-7.374-.224 2.741.337 8.365 4.368 8.935 4.031.57 5.166-4.814 5.23-7.578m34.602-2.714c-.704 2.672-1.103 8.161 2.928 8.731 4.032.57 6.126-4.678 6.67-7.374-.224 2.741.337 8.365 4.368 8.935 4.032.57 5.167-4.814 5.23-7.578m34.602-2.714c-.703 2.672-1.103 8.161 2.929 8.731 4.031.57 6.126-4.678 6.669-7.374-.223 2.741.338 8.365 4.369 8.935 4.031.57 5.166-4.814 5.23-7.578m34.601-2.714c-.703 2.672-1.102 8.161 2.929 8.731 4.031.57 6.126-4.678 6.67-7.374-.224 2.741.337 8.365 4.368 8.935 4.031.57 5.166-4.814 5.23-7.578m34.602-2.714c-.704 2.672-1.103 8.161 2.928 8.731 4.032.57 6.126-4.678 6.67-7.374-.224 2.741.337 8.365 4.368 8.935 4.032.57 5.167-4.814 5.23-7.578m34.602-2.714c-.703 2.672-1.103 8.161 2.929 8.731 4.031.57 6.126-4.678 6.669-7.374-.223 2.741.338 8.365 4.369 8.935 4.031.57 5.166-4.814 5.23-7.578m34.601-2.714c-.703 2.672-1.102 8.161 2.929 8.731 4.031.57 6.126-4.678 6.67-7.374-.224 2.741.337 8.365 4.368 8.935 4.031.57 5.166-4.814 5.23-7.578m34.602-2.714c-.704 2.672-1.103 8.161 2.928 8.731 4.032.57 6.126-4.678 6.67-7.374-.224 2.741.337 8.365 4.369 8.935 4.031.57 5.166-4.814 5.229-7.578m34.602-2.714c-.703 2.672-1.103 8.161 2.929 8.731 4.031.57 6.126-4.678 6.669-7.374-.223 2.741.338 8.365 4.369 8.935 4.031.57 5.166-4.814 5.23-7.578m34.601-2.714c-.703 2.672-1.102 8.161 2.929 8.731 4.031.57 6.126-4.678 6.67-7.374-.224 2.741.337 8.365 4.368 8.935 4.031.57 5.166-4.814 5.23-7.578m34.602-2.714c-.704 2.672-1.103 8.161 2.928 8.731 4.032.57 6.126-4.678 6.67-7.374-.224 2.741.337 8.365 4.369 8.935 4.031.57 5.166-4.814 5.229-7.578m34.602-2.714c-.703 2.672-1.103 8.161 2.929 8.731 4.031.57 6.126-4.678 6.669-7.374-.223 2.741.338 8.365 4.369 8.935 4.031.57 5.166-4.814 5.23-7.578m34.603-2.714c-.71 2.672-1.1 8.161 2.93 8.731 4.03.57 6.12-4.678 6.67-7.374-.23 2.741.33 8.365 4.37 8.935 4.03.57 5.16-4.814 5.23-7.578m34.6-2.714c-.71 2.672-1.11 8.161 2.93 8.731 4.03.57 6.12-4.678 6.66-7.374-.22 2.741.34 8.365 4.37 8.935 4.03.57 5.17-4.814 5.23-7.578m34.6-2.714c-.7 2.672-1.1 8.161 2.93 8.731 4.03.57 6.13-4.678 6.67-7.374-.22 2.741.34 8.365 4.37 8.935 4.03.57 5.17-4.814 5.23-7.578m34.6-2.714c-.7 2.672-1.1 8.161 2.93 8.731 4.03.57 6.13-4.678 6.67-7.374-.22 2.741.34 8.365 4.37 8.935 4.03.57 5.17-4.814 5.23-7.578m34.6-2.714c-.7 2.672-1.1 8.161 2.93 8.731 4.03.57 6.13-4.678 6.67-7.374-.22 2.741.34 8.365 4.37 8.935 4.03.57 5.16-4.814 5.23-7.578m34.6-2.714c-.7 2.672-1.1 8.161 2.93 8.731 4.03.57 6.12-4.678 6.67-7.374-.23 2.741.34 8.365 4.37 8.935 4.03.57 5.16-4.814 5.23-7.578m34.6-2.714c-.71 2.672-1.1 8.161 2.93 8.731 4.03.57 6.12-4.678 6.67-7.374-.23 2.741.33 8.365 4.37 8.935 4.03.57 5.16-4.814 5.23-7.578m34.6-2.714c-.71 2.672-1.11 8.161 2.93 8.731 4.03.57 6.12-4.678 6.67-7.374-.23 2.741.33 8.365 4.36 8.935 4.03.57 5.17-4.814 5.23-7.578m34.61-2.714c-.71 2.672-1.11 8.161 2.92 8.731 4.03.57 6.13-4.678 6.67-7.374-.22 2.741.34 8.365 4.37 8.935 4.03.57 5.17-4.814 5.23-7.578m34.6-2.714c-.7 2.672-1.1 8.161 2.93 8.731 4.03.57 6.13-4.678 6.67-7.374-.22 2.741.34 8.365 4.37 8.935 4.03.57 5.17-4.814 5.23-7.578M.45 520.618c-.703 2.673-1.103 8.161 2.929 8.732 4.03.57 6.126-4.679 6.67-7.375-.224 2.741.337 8.365 4.368 8.936 4.031.57 5.166-4.815 5.23-7.578m34.601-2.715c-.703 2.673-1.102 8.161 2.929 8.732 4.031.57 6.126-4.679 6.67-7.375-.224 2.741.337 8.365 4.368 8.936 4.031.57 5.166-4.815 5.23-7.578m34.602-2.715c-.704 2.673-1.103 8.161 2.928 8.732 4.032.57 6.126-4.679 6.67-7.375-.223 2.741.337 8.365 4.369 8.936 4.031.57 5.166-4.815 5.229-7.578m34.602-2.715c-.703 2.673-1.103 8.161 2.929 8.732 4.031.57 6.126-4.679 6.669-7.375-.223 2.741.338 8.365 4.369 8.936 4.031.57 5.166-4.815 5.23-7.578m34.601-2.715c-.703 2.673-1.102 8.161 2.929 8.732 4.031.57 6.126-4.679 6.67-7.375-.224 2.741.337 8.365 4.368 8.936 4.031.57 5.166-4.815 5.23-7.578m34.602-2.715c-.704 2.673-1.103 8.161 2.928 8.732 4.032.57 6.126-4.679 6.67-7.375-.223 2.741.337 8.365 4.368 8.936 4.032.57 5.167-4.815 5.23-7.578m34.602-2.715c-.703 2.673-1.103 8.161 2.929 8.732 4.031.57 6.126-4.679 6.669-7.375-.223 2.741.338 8.365 4.369 8.936 4.031.57 5.166-4.815 5.23-7.578m34.601-2.715c-.703 2.673-1.102 8.161 2.929 8.732 4.031.57 6.126-4.679 6.67-7.375-.224 2.741.337 8.365 4.368 8.936 4.031.57 5.166-4.815 5.23-7.578m34.602-2.715c-.704 2.673-1.103 8.161 2.928 8.732 4.032.57 6.126-4.679 6.67-7.375-.224 2.741.337 8.365 4.368 8.936 4.032.57 5.167-4.815 5.23-7.578m34.602-2.715c-.703 2.673-1.103 8.161 2.929 8.732 4.031.57 6.126-4.679 6.669-7.375-.223 2.741.338 8.365 4.369 8.936 4.031.57 5.166-4.815 5.23-7.578m34.601-2.715c-.703 2.673-1.102 8.161 2.929 8.732 4.031.57 6.126-4.679 6.67-7.375-.224 2.741.337 8.365 4.368 8.936 4.031.57 5.166-4.815 5.23-7.578m34.602-2.715c-.704 2.673-1.103 8.161 2.928 8.732 4.032.57 6.126-4.679 6.67-7.375-.224 2.741.337 8.365 4.368 8.936 4.032.57 5.167-4.815 5.23-7.578m34.602-2.715c-.703 2.673-1.103 8.161 2.929 8.732 4.031.57 6.126-4.679 6.669-7.375-.223 2.741.338 8.365 4.369 8.936 4.031.57 5.166-4.815 5.23-7.578m34.601-2.715c-.703 2.673-1.102 8.161 2.929 8.732 4.031.57 6.126-4.679 6.67-7.375-.224 2.741.337 8.365 4.368 8.936 4.031.57 5.166-4.815 5.23-7.578m34.602-2.715c-.704 2.673-1.103 8.161 2.928 8.732 4.032.57 6.126-4.679 6.67-7.375-.224 2.741.337 8.365 4.369 8.936 4.031.57 5.166-4.815 5.229-7.578m34.602-2.715c-.703 2.673-1.103 8.161 2.929 8.732 4.031.57 6.126-4.679 6.669-7.375-.223 2.741.338 8.365 4.369 8.936 4.031.57 5.166-4.815 5.23-7.578m34.601-2.715c-.703 2.673-1.102 8.161 2.929 8.732 4.031.57 6.126-4.679 6.67-7.375-.224 2.741.337 8.365 4.368 8.936 4.031.57 5.166-4.815 5.23-7.578m34.602-2.715c-.704 2.673-1.103 8.161 2.928 8.732 4.032.57 6.126-4.679 6.67-7.375-.224 2.741.337 8.365 4.369 8.936 4.031.57 5.166-4.815 5.229-7.578m34.602-2.715c-.703 2.673-1.103 8.161 2.929 8.732 4.031.57 6.126-4.679 6.669-7.375-.223 2.741.338 8.365 4.369 8.936 4.031.57 5.166-4.815 5.23-7.578m34.603-2.715c-.71 2.673-1.1 8.161 2.93 8.732 4.03.57 6.12-4.679 6.67-7.375-.23 2.741.33 8.365 4.37 8.936 4.03.57 5.16-4.815 5.23-7.578m34.6-2.715c-.71 2.673-1.11 8.161 2.93 8.732 4.03.57 6.12-4.679 6.66-7.375-.22 2.741.34 8.365 4.37 8.936 4.03.57 5.17-4.815 5.23-7.578m34.6-2.715c-.7 2.673-1.1 8.161 2.93 8.732 4.03.57 6.13-4.679 6.67-7.375-.22 2.741.34 8.365 4.37 8.936 4.03.57 5.17-4.815 5.23-7.578m34.6-2.715c-.7 2.673-1.1 8.161 2.93 8.732 4.03.57 6.13-4.679 6.67-7.375-.22 2.741.34 8.365 4.37 8.936 4.03.57 5.17-4.815 5.23-7.578m34.6-2.715c-.7 2.673-1.1 8.161 2.93 8.732 4.03.57 6.13-4.679 6.67-7.375-.22 2.741.34 8.365 4.37 8.936 4.03.57 5.16-4.815 5.23-7.578m34.6-2.715c-.7 2.673-1.1 8.161 2.93 8.732 4.03.57 6.12-4.679 6.67-7.375-.23 2.741.34 8.365 4.37 8.936 4.03.57 5.16-4.815 5.23-7.578m34.6-2.715c-.71 2.673-1.1 8.161 2.93 8.732 4.03.57 6.12-4.679 6.67-7.375-.23 2.741.33 8.365 4.37 8.936 4.03.57 5.16-4.815 5.23-7.578m34.6-2.715c-.71 2.673-1.11 8.161 2.93 8.732 4.03.57 6.12-4.679 6.67-7.375-.23 2.741.33 8.365 4.36 8.936 4.03.57 5.17-4.815 5.23-7.578m34.61-2.715c-.71 2.673-1.11 8.161 2.92 8.732 4.03.57 6.13-4.679 6.67-7.375-.22 2.741.34 8.365 4.37 8.936 4.03.57 5.17-4.815 5.23-7.578m34.6-2.715c-.7 2.673-1.1 8.161 2.93 8.732 4.03.57 6.13-4.679 6.67-7.375-.22 2.741.34 8.365 4.37 8.936 4.03.57 5.17-4.815 5.23-7.578M.45 560.666c-.703 2.673-1.103 8.161 2.929 8.731 4.03.57 6.126-4.678 6.67-7.374-.224 2.741.337 8.365 4.368 8.935 4.031.57 5.166-4.814 5.23-7.578m34.601-2.714c-.703 2.673-1.102 8.161 2.929 8.731 4.031.57 6.126-4.678 6.67-7.374-.224 2.741.337 8.365 4.368 8.935 4.031.57 5.166-4.814 5.23-7.578m34.602-2.714c-.704 2.673-1.103 8.161 2.928 8.731 4.032.57 6.126-4.678 6.67-7.374-.223 2.741.337 8.365 4.369 8.935 4.031.57 5.166-4.814 5.229-7.578m34.602-2.714c-.703 2.673-1.103 8.161 2.929 8.731 4.031.57 6.126-4.678 6.669-7.374-.223 2.741.338 8.365 4.369 8.935 4.031.57 5.166-4.814 5.23-7.578m34.601-2.714c-.703 2.673-1.102 8.161 2.929 8.731 4.031.57 6.126-4.678 6.67-7.374-.224 2.741.337 8.365 4.368 8.935 4.031.57 5.166-4.814 5.23-7.578m34.602-2.714c-.704 2.673-1.103 8.161 2.928 8.731 4.032.57 6.126-4.678 6.67-7.374-.223 2.741.337 8.365 4.368 8.935 4.032.57 5.167-4.814 5.23-7.578m34.602-2.714c-.703 2.673-1.103 8.161 2.929 8.731 4.031.57 6.126-4.678 6.669-7.374-.223 2.741.338 8.365 4.369 8.935 4.031.57 5.166-4.814 5.23-7.578m34.601-2.714c-.703 2.673-1.102 8.161 2.929 8.731 4.031.57 6.126-4.678 6.67-7.374-.224 2.741.337 8.365 4.368 8.935 4.031.57 5.166-4.814 5.23-7.578m34.602-2.714c-.704 2.673-1.103 8.161 2.928 8.731 4.032.57 6.126-4.678 6.67-7.374-.224 2.741.337 8.365 4.368 8.935 4.032.57 5.167-4.814 5.23-7.578m34.602-2.714c-.703 2.673-1.103 8.161 2.929 8.731 4.031.57 6.126-4.678 6.669-7.374-.223 2.741.338 8.365 4.369 8.935 4.031.57 5.166-4.814 5.23-7.578m34.601-2.714c-.703 2.673-1.102 8.161 2.929 8.731 4.031.57 6.126-4.678 6.67-7.374-.224 2.741.337 8.365 4.368 8.935 4.031.57 5.166-4.814 5.23-7.578m34.602-2.714c-.704 2.673-1.103 8.161 2.928 8.731 4.032.57 6.126-4.678 6.67-7.374-.224 2.741.337 8.365 4.368 8.935 4.032.57 5.167-4.814 5.23-7.578m34.602-2.714c-.703 2.673-1.103 8.161 2.929 8.731 4.031.57 6.126-4.678 6.669-7.374-.223 2.741.338 8.365 4.369 8.935 4.031.57 5.166-4.814 5.23-7.578m34.601-2.714c-.703 2.673-1.102 8.161 2.929 8.731 4.031.57 6.126-4.678 6.67-7.374-.224 2.741.337 8.365 4.368 8.935 4.031.57 5.166-4.814 5.23-7.578m34.602-2.714c-.704 2.673-1.103 8.161 2.928 8.731 4.032.57 6.126-4.678 6.67-7.374-.224 2.741.337 8.365 4.369 8.935 4.031.57 5.166-4.814 5.229-7.578m34.602-2.714c-.703 2.673-1.103 8.161 2.929 8.731 4.031.57 6.126-4.678 6.669-7.374-.223 2.741.338 8.365 4.369 8.935 4.031.57 5.166-4.814 5.23-7.578m34.601-2.714c-.703 2.673-1.102 8.161 2.929 8.731 4.031.57 6.126-4.678 6.67-7.374-.224 2.741.337 8.365 4.368 8.935 4.031.57 5.166-4.814 5.23-7.578m34.602-2.714c-.704 2.673-1.103 8.161 2.928 8.731 4.032.57 6.126-4.678 6.67-7.374-.224 2.741.337 8.365 4.369 8.935 4.031.57 5.166-4.814 5.229-7.578m34.602-2.714c-.703 2.673-1.103 8.161 2.929 8.731 4.031.57 6.126-4.678 6.669-7.374-.223 2.741.338 8.365 4.369 8.935 4.031.57 5.166-4.814 5.23-7.578m34.603-2.714c-.71 2.673-1.1 8.161 2.93 8.731 4.03.57 6.12-4.678 6.67-7.374-.23 2.741.33 8.365 4.37 8.935 4.03.57 5.16-4.814 5.23-7.578m34.6-2.714c-.71 2.673-1.11 8.161 2.93 8.731 4.03.57 6.12-4.678 6.66-7.374-.22 2.741.34 8.365 4.37 8.935 4.03.57 5.17-4.814 5.23-7.578m34.6-2.714c-.7 2.673-1.1 8.161 2.93 8.731 4.03.57 6.13-4.678 6.67-7.374-.22 2.741.34 8.365 4.37 8.935 4.03.57 5.17-4.814 5.23-7.578m34.6-2.714c-.7 2.673-1.1 8.161 2.93 8.731 4.03.57 6.13-4.678 6.67-7.374-.22 2.741.34 8.365 4.37 8.935 4.03.57 5.17-4.814 5.23-7.578m34.6-2.714c-.7 2.673-1.1 8.161 2.93 8.731 4.03.57 6.13-4.678 6.67-7.374-.22 2.741.34 8.365 4.37 8.935 4.03.57 5.16-4.814 5.23-7.578m34.6-2.714c-.7 2.673-1.1 8.161 2.93 8.731 4.03.57 6.12-4.678 6.67-7.374-.23 2.741.34 8.365 4.37 8.935 4.03.57 5.16-4.814 5.23-7.578m34.6-2.714c-.71 2.673-1.1 8.161 2.93 8.731 4.03.57 6.12-4.678 6.67-7.374-.23 2.741.33 8.365 4.37 8.935 4.03.57 5.16-4.814 5.23-7.578m34.6-2.714c-.71 2.673-1.11 8.161 2.93 8.731 4.03.57 6.12-4.678 6.67-7.374-.23 2.741.33 8.365 4.36 8.935 4.03.57 5.17-4.814 5.23-7.578m34.61-2.714c-.71 2.673-1.11 8.161 2.92 8.731 4.03.57 6.13-4.678 6.67-7.374-.22 2.741.34 8.365 4.37 8.935 4.03.57 5.17-4.814 5.23-7.578m34.6-2.714c-.7 2.673-1.1 8.161 2.93 8.731 4.03.57 6.13-4.678 6.67-7.374-.22 2.741.34 8.365 4.37 8.935 4.03.57 5.17-4.814 5.23-7.578"/></svg>